<svg width="32" height="27" viewBox="0 0 32 27" fill="none" xmlns="http://www.w3.org/2000/svg">
<path d="M26.7921 1.73383C26.4488 0.721 25.7793 0 24.6463 0H6.62127C5.48827 0 4.83594 0.721 4.47544 1.73383L0.5 10.8421L1.04211 24.4625C1.04211 25.4067 1.38544 25.75 2.32961 25.75H3.18794C4.13211 25.75 4.47544 25.4067 4.47544 24.4625V22.3167L5.37895 20.6H25.4368L26.7921 22.3167V24.4625C26.7921 25.4067 27.1354 25.75 28.0796 25.75H28.9379C29.8821 25.75 30.2254 25.4067 30.2254 24.4625L30.8579 10.8421L26.7921 1.73383Z" stroke="#2B120B"/>
<path d="M14.0526 15.1789L14.4962 15.7211L14.8658 15.9921L15.6789 16.2632L16.4921 15.9921L16.8987 15.7211L17.3052 15.1789" stroke="#2B120B" stroke-linecap="round"/>
<path d="M6.69494 15.45C6.23965 15.45 5.80301 15.2691 5.48107 14.9472C5.15914 14.6253 4.97827 14.1886 4.97827 13.7333C4.97827 13.278 5.15914 12.8414 5.48107 12.5195C5.80301 12.1975 6.23965 12.0167 6.69494 12.0167C7.15023 12.0167 7.58687 12.1975 7.90881 12.5195C8.23074 12.8414 8.41161 13.278 8.41161 13.7333C8.41161 14.1886 8.23074 14.6253 7.90881 14.9472C7.58687 15.2691 7.15023 15.45 6.69494 15.45ZM25.5783 14.5465C25.123 14.5465 25.7155 14.5465 24.3133 14.5465C23.9914 14.2246 23.8616 14.1886 23.8616 13.7333C23.8616 13.278 24.0425 12.8414 24.3644 12.5195C24.6863 12.1975 25.123 12.0167 25.5783 12.0167C26.0336 12.0167 26.4702 12.1975 26.7921 12.5195C27.1141 12.8414 27.2949 13.278 27.2949 13.7333C27.2949 14.1886 27.3458 14.2246 27.0239 14.5465C27.0239 14.5465 26.4818 14.5465 25.5783 14.5465Z" stroke="#BF5C23"/>
<path d="M4.29474 9.21579L7.05044 2.575H24.2171L27.6053 9.21579H4.29474Z" stroke="#2B120B" stroke-linejoin="round"/>
</svg>
