<svg width="31" height="31" viewBox="0 0 31 31" fill="none" xmlns="http://www.w3.org/2000/svg">
<path d="M8.4475 6.45833C8.525 7.60792 8.71875 8.73167 9.02875 9.80375L7.47875 11.3537C6.94917 9.80375 6.61333 8.16333 6.49708 6.45833H8.4475ZM21.1833 21.9842C22.2812 22.2942 23.405 22.4879 24.5417 22.5654V24.49C22.8367 24.3737 21.1962 24.0379 19.6333 23.5212L21.1833 21.9842ZM9.6875 3.875H5.16667C4.45625 3.875 3.875 4.45625 3.875 5.16667C3.875 17.2954 13.7046 27.125 25.8333 27.125C26.5437 27.125 27.125 26.5437 27.125 25.8333V21.3254C27.125 20.615 26.5437 20.0338 25.8333 20.0338C24.2317 20.0338 22.6688 19.7754 21.2221 19.2975C21.0942 19.2497 20.9581 19.2278 20.8217 19.2329C20.4858 19.2329 20.1629 19.3621 19.9046 19.6075L17.0629 22.4492C13.4016 20.5767 10.4233 17.5984 8.55083 13.9371L11.3925 11.0954C11.7542 10.7337 11.8575 10.23 11.7154 9.77792C11.2263 8.28978 10.9777 6.73313 10.9792 5.16667C10.9792 4.45625 10.3979 3.875 9.6875 3.875Z" fill="#2B120B"/>
</svg>
