<svg width="35" height="35" viewBox="0 0 35 35" fill="none" xmlns="http://www.w3.org/2000/svg">
<path d="M17.5015 13.9271C18.8388 12.5606 20.58 11.6667 22.6057 11.6667C24.7329 11.6667 26.773 12.5117 28.2772 14.0159C29.7814 15.5201 30.6265 17.5603 30.6265 19.6875V30.625H27.7098V19.6875C27.7098 18.3338 27.1721 17.0355 26.2148 16.0783C25.2576 15.1211 23.9594 14.5834 22.6057 14.5834C21.2519 14.5834 19.9537 15.1211 18.9965 16.0783C18.0392 17.0355 17.5015 18.3338 17.5015 19.6875V30.625H14.5848V12.3959H17.5015V13.9271ZM7.29315 9.47919C6.71299 9.47919 6.15659 9.24872 5.74636 8.83848C5.33612 8.42825 5.10565 7.87185 5.10565 7.29169C5.10565 6.71153 5.33612 6.15513 5.74636 5.74489C6.15659 5.33466 6.71299 5.10419 7.29315 5.10419C7.87331 5.10419 8.42971 5.33466 8.83995 5.74489C9.25018 6.15513 9.48065 6.71153 9.48065 7.29169C9.48065 7.87185 9.25018 8.42825 8.83995 8.83848C8.42971 9.24872 7.87331 9.47919 7.29315 9.47919ZM5.83482 12.3959H8.75149V30.625H5.83482V12.3959Z" fill="#3370D9"/>
</svg>
