<svg width="49" height="48" viewBox="0 0 49 48" fill="none" xmlns="http://www.w3.org/2000/svg">
<path fill-rule="evenodd" clip-rule="evenodd" d="M2.6317 5.526C2.75987 5.14867 3.03574 4.83664 3.39869 4.65849C3.76163 4.48035 4.18193 4.45068 4.5672 4.576L5.10825 4.754L5.18991 4.78C6.46799 5.198 7.54804 5.55 8.39941 5.938C9.30183 6.35 10.0858 6.858 10.68 7.668C11.2741 8.474 11.5211 9.364 11.6334 10.334C11.7396 11.246 11.7396 12.362 11.7396 13.682V19C11.7396 21.87 11.7437 23.874 11.9499 25.384C12.152 26.852 12.5215 27.628 13.085 28.182C13.6506 28.736 14.4448 29.096 15.9434 29.294C17.4848 29.496 19.5285 29.5 22.4583 29.5H36.75C37.1561 29.5 37.5456 29.658 37.8328 29.9393C38.1199 30.2206 38.2812 30.6022 38.2812 31C38.2812 31.3978 38.1199 31.7794 37.8328 32.0607C37.5456 32.342 37.1561 32.5 36.75 32.5H22.346C19.5551 32.5 17.3031 32.5 15.533 32.268C13.6955 32.024 12.1479 31.508 10.9188 30.304C9.68974 29.1 9.16299 27.584 8.91595 25.784C8.67708 24.05 8.67708 21.844 8.67708 19.11V13.766C8.67708 12.34 8.67708 11.396 8.59133 10.674C8.50966 9.99 8.37287 9.662 8.19524 9.422C8.01966 9.182 7.74404 8.948 7.10704 8.658C6.43329 8.352 5.52066 8.05 4.1405 7.598L3.59945 7.424C3.40844 7.36166 3.23186 7.26302 3.0798 7.13374C2.92775 7.00447 2.80322 6.84709 2.71333 6.67061C2.62344 6.49413 2.56996 6.30201 2.55596 6.10527C2.54195 5.90852 2.56769 5.71299 2.6317 5.526Z" fill="#2B120B" fill-opacity="0.75"/>
<path opacity="0.5" d="M11.7294 12C11.7375 12.52 11.7409 13.0807 11.7396 13.682V19C11.7396 21.87 11.7437 23.874 11.9499 25.384C11.9812 25.604 12.0152 25.8093 12.052 26H32.7136C34.6716 26 35.6495 26 36.4172 25.504C37.1849 25.008 37.5707 24.128 38.3405 22.364L39.2184 20.364C40.8701 16.584 41.6949 14.696 40.7884 13.348C39.8819 12 37.7831 12 33.5854 12H11.7294Z" fill="#C4B99B"/>
<path d="M14.8021 18C14.8021 17.6022 14.9634 17.2206 15.2506 16.9393C15.5377 16.658 15.9272 16.5 16.3333 16.5H22.4583C22.8644 16.5 23.2539 16.658 23.5411 16.9393C23.8283 17.2206 23.9896 17.6022 23.9896 18C23.9896 18.3978 23.8283 18.7794 23.5411 19.0607C23.2539 19.342 22.8644 19.5 22.4583 19.5H16.3333C15.9272 19.5 15.5377 19.342 15.2506 19.0607C14.9634 18.7794 14.8021 18.3978 14.8021 18ZM15.3125 36C16.1247 36 16.9037 36.3161 17.478 36.8787C18.0523 37.4413 18.375 38.2044 18.375 39C18.375 39.7956 18.0523 40.5587 17.478 41.1213C16.9037 41.6839 16.1247 42 15.3125 42C14.5003 42 13.7213 41.6839 13.147 41.1213C12.5727 40.5587 12.25 39.7956 12.25 39C12.25 38.2044 12.5727 37.4413 13.147 36.8787C13.7213 36.3161 14.5003 36 15.3125 36ZM36.75 39C36.75 38.2044 36.4273 37.4413 35.853 36.8787C35.2787 36.3161 34.4997 36 33.6875 36C32.8753 36 32.0963 36.3161 31.522 36.8787C30.9477 37.4413 30.625 38.2044 30.625 39C30.625 39.7956 30.9477 40.5587 31.522 41.1213C32.0963 41.6839 32.8753 42 33.6875 42C34.4997 42 35.2787 41.6839 35.853 41.1213C36.4273 40.5587 36.75 39.7956 36.75 39Z" fill="#C4B99B"/>
</svg>
